<svg xmlns="http://www.w3.org/2000/svg" width="22" height="24" viewBox="0 0 22 24">
    <g fill="none" fill-rule="evenodd">
        <g>
            <rect width="20" height="20" x="1" y="1" stroke="#4C6470" stroke-width="2" rx="2"/>
            <rect width="3" height="4" x="3" y="20" fill="#4C6470" rx="1.5"/>
            <rect width="3" height="4" x="16" y="20" fill="#4C6470" rx="1.5"/>
        </g>
        <g stroke="#4C6470" transform="translate(2 2)">
            <circle cx="9" cy="9" r="3" stroke-width="2"/>
            <path d="M12.183 5.11l-.709.709a.497.497 0 0 0 0 .706c.198.197.511.197.707 0l.709-.708a.497.497 0 0 0 0-.706.497.497 0 0 0-.707 0zm.707 7.073l-.709-.709a.497.497 0 0 0-.706 0 .497.497 0 0 0 0 .707l.708.709c.196.196.51.196.706 0a.497.497 0 0 0 0-.707zm-7.073.707l.709-.709a.497.497 0 0 0 0-.706.497.497 0 0 0-.707 0l-.709.708a.497.497 0 0 0 0 .706c.198.197.511.197.707 0zM5.11 5.817l.709.709c.196.197.51.196.706 0a.497.497 0 0 0 0-.707l-.708-.709a.497.497 0 0 0-.706 0 .497.497 0 0 0 0 .707z"/>
        </g>
    </g>
</svg>
