<svg xmlns="http://www.w3.org/2000/svg" width="31" height="28" viewBox="0 0 31 28">
    <path fill="none" fill-rule="evenodd" stroke="#4C6470" stroke-linecap="round" stroke-linejoin="round" stroke-width="2" d="M21.54 22.047l-.222.509c-.584 1.335-1.489 2.288-2.614 2.89a6.204 6.204 0 0 1-3.287.724l-.024.002a6.204 6.204 0 0 1-3.262-.727c-1.126-.6-2.031-1.554-2.615-2.89l-.223-.508a2.73 2.73 0 0 0-.467.485l-.511.675-.75-.393c-.95-.496-1.58-1.493-1.607-2.468-.037-1.267.955-2.128 2.327-1.861.135.026.433-.058.83-.287.356-.204.751-.499 1.164-.86.209-.182.413-.374.61-.57-1.497.07-2.768-.015-4.111-.425-1.933-.59-3.446-1.77-4.322-3.652C.826 9.192 1.57 4.796 3.603 1.923L4.633.466l.705 1.639c.073.17.241.499.512.934a12.002 12.002 0 0 0 1.878 2.315c.802-2.653 3.296-4.297 6.074-2.737.646.363 1.15.847 1.533 1.44a4.302 4.302 0 0 1 1.533-1.44c2.8-1.574 5.314.112 6.093 2.805l.016.054a12.002 12.002 0 0 0 2.007-2.437c.27-.435.44-.764.512-.934l.705-1.64 1.03 1.458c2.033 2.874 2.777 7.27 1.147 10.768-.876 1.883-2.389 3.062-4.322 3.652-1.343.41-2.614.495-4.112.426.281.273.445.424.611.57.413.36.808.655 1.164.86.397.228.695.312.83.286 1.372-.267 2.363.594 2.327 1.861-.028.975-.657 1.972-1.607 2.468l-.75.393-.51-.675a2.731 2.731 0 0 0-.468-.485z"/>
</svg>
