<svg xmlns="http://www.w3.org/2000/svg" width="26" height="26" viewBox="0 0 26 26">
    <g fill="none" fill-rule="nonzero" stroke="#4C6470" stroke-width="2">
        <path stroke-linecap="round" stroke-linejoin="round" d="M9.474 20.869a8.49 8.49 0 0 1-1.666-.946l-3.652 2.064-3.535-5.99 3.67-2.072a8.442 8.442 0 0 1 0-1.85L.62 10.003l3.535-5.989 3.652 2.064a8.506 8.506 0 0 1 1.666-.947V1h7.052v4.131a8.49 8.49 0 0 1 1.666.946l3.652-2.064 3.535 5.99-3.67 2.072a8.438 8.438 0 0 1 0 1.85l3.67 2.072-3.535 5.989-3.652-2.064a8.506 8.506 0 0 1-1.667.947V25H9.474v-4.131z"/>
        <path stroke-linecap="square" d="M10 13.008A3 3 0 0 0 16 13a3.01 3.01 0 0 0-3.012-3A3 3 0 0 0 10 13.008z"/>
    </g>
</svg>
